<svg width="12" height="12" viewBox="0 0 12 12" fill="none" xmlns="http://www.w3.org/2000/svg">
<path fill-rule="evenodd" clip-rule="evenodd" d="M11.0135 0.98637C10.8074 0.78026 10.4733 0.78026 10.2671 0.98637L5.99995 5.25357L1.73276 0.986384L1.68991 0.947911C1.48266 0.78119 1.17874 0.794015 0.98637 0.986384C0.78026 1.19249 0.78026 1.52666 0.98637 1.73277L5.25356 5.99996L0.98637 10.2671L0.947896 10.31C0.781176 10.5172 0.794 10.8212 0.98637 11.0135C1.19248 11.2196 1.52665 11.2196 1.73276 11.0135L5.99995 6.74635L10.2671 11.0136L10.31 11.052C10.5172 11.2187 10.8212 11.2059 11.0135 11.0136C11.2196 10.8074 11.2196 10.4733 11.0135 10.2672L6.74634 5.99996L11.0135 1.73276L11.052 1.68991C11.2187 1.48266 11.2059 1.17874 11.0135 0.98637Z" fill="black"/>
<mask id="mask0_10297_5523" style="mask-type:alpha" maskUnits="userSpaceOnUse" x="0" y="0" width="12" height="12">
<path fill-rule="evenodd" clip-rule="evenodd" d="M11.0135 0.98637C10.8074 0.78026 10.4733 0.78026 10.2671 0.98637L5.99995 5.25357L1.73276 0.986384L1.68991 0.947911C1.48266 0.78119 1.17874 0.794015 0.98637 0.986384C0.78026 1.19249 0.78026 1.52666 0.98637 1.73277L5.25356 5.99996L0.98637 10.2671L0.947896 10.31C0.781176 10.5172 0.794 10.8212 0.98637 11.0135C1.19248 11.2196 1.52665 11.2196 1.73276 11.0135L5.99995 6.74635L10.2671 11.0136L10.31 11.052C10.5172 11.2187 10.8212 11.2059 11.0135 11.0136C11.2196 10.8074 11.2196 10.4733 11.0135 10.2672L6.74634 5.99996L11.0135 1.73276L11.052 1.68991C11.2187 1.48266 11.2059 1.17874 11.0135 0.98637Z" fill="white"/>
</mask>
<g mask="url(#mask0_10297_5523)">
<rect width="12" height="12" fill="#FFF"/>
</g>
</svg>
